  <svg
    xmlns="http://www.w3.org/2000/svg"
    viewBox="30 30 90 90"
    width="150"
    height="150"
	fill="#4f8dff"
  >
    <path d="M72.312 73.089c-.971-9.928-9.897-17.201-19.872-17.201h-8.42c-1.948 0-3.683 1.17-4.494 2.942A38.709 38.709 0 0 0 36 75a38.724 38.724 0 0 0 3.526 16.174c.812 1.772 2.546 2.942 4.494 2.942h9.271c11.172-.001 20.134-9.635 19.021-21.027z" />
    <path d="M78.665 36.168a39.855 39.855 0 0 0-6.474-.068c-4.679.335-6.104 6.72-2.022 9.031 10.413 5.896 17.457 17.07 17.457 29.871 0 12.797-7.041 23.968-17.451 29.867-4.218 2.389-2.508 8.747 2.331 9.053.825.053 1.656.08 2.494.08 22.977 0 41.313-19.87 38.763-43.364-1.971-18.156-16.914-32.802-35.098-34.47z" />
  </svg>